/* XPM */
static char * image_name[] = {
"21 18 60 1",
"ä	c None",
" 	c #DCDCDCDCDCDC",
".	c #D3D3D3D3D3D3",
"X	c #CFCFD3D3CFCF",
"o	c #969692929696",
"O	c #CCCCCCCCCCCC",
"+	c #B6B6B2B2B6B6",
"@	c #B9B9B9B9B9B9",
"#	c #BEBEBABABEBE",
"$	c #BEBEBEBEBEBE",
"%	c #717175757171",
"&	c #B0B0B0B0B0B0",
"*	c #AEAEB2B2CFCF",
"=	c #AEAEAEAEB6B6",
"-	c #AAAAAAAAAAAA",
";	c #C4C4C4C4C4C4",
":	c #51515555FFFF",
">	c #28284D4D9696",
",	c #28285D5D4949",
"<	c #2F2F4F4F5050",
"1	c #202028285151",
"2	c #000000008080",
"3	c #AEAE61616161",
"4	c #696969697171",
"5	c #B6B6AEAEB6B6",
"6	c #202024249696",
"7	c #515171718E8E",
"8	c #707080809090",
"9	c #8E8E91918E8E",
"0	c #616161616161",
"q	c #5F5F5F5F5F5F",
"w	c #AEAEAEAEAEAE",
"e	c #717179798686",
"r	c #8E8E8A8A8E8E",
"t	c #999999999999",
"y	c #00001C1C8E8E",
"u	c #96969696AEAE",
"i	c #5959A2A2D7D7",
"p	c #38386D6DA6A6",
"a	c #A6A6A6A6A6A6",
"s	c #A9A9A9A9A9A9",
"d	c #AEAEAAAAAEAE",
"f	c #494949495151",
"g	c #A6A6A2A2A6A6",
"h	c #555555555555",
"j	c #A6A69E9EA6A6",
"k	c #28282C2C3030",
"l	c #C7C7BABAC7C7",
"z	c #181820202020",
"x	c #D2D2B4B48C8C",
"c	c #DFDFAEAE6969",
"v	c #FFFFFFFFD7D7",
"b	c #666666666666",
"n	c #D3D3F1F1FFFF",
"m	c #BEBEC3C3BEBE",
"M	c #BEBEC3C3CFCF",
"N	c #A0A0A0A0A0A0",
"B	c #9E9E9A9A9E9E",
"V	c #797979797979",
"C	c #BEBEB6B6BEBE",
" ......X........X...o",
"O+@++@++@@@##$#@@@+O%",
"O&+@@+@@@**==&-*;@@X%",
"O&++++@@*:>,<,123;+O4",
"O5+++@@*67889061qO+O%",
"Ow+++@&>e9rt4y110;5;4",
";-+&+=:*OX.u61110O5;4",
";-5&+ip=uaup:1110;5;4",
";sdw*:;@uf:661110;d;4",
";g-w*:ss&hp66111h#s$4",
";jsw*:pp:p:6611kg&-#4",
"lgs-*:>6>>:>61z@;ss#4",
"#jgs*>t&xcvp2z& +gg@b",
"#jgsu>; ccn>1& @ggg@b",
"@tjgu>m-3oM>N @aBjj+b",
"@tjNtr9888Vr#5gBjjj+0",
"#d5+++CCCCC+5dd&55&;0",
"rqqqqqqqqqqqqqqqqqq01"};
